<svg xmlns="http://www.w3.org/2000/svg" viewBox="0 0 1200 675" font-family="Helvetica Neue, Helvetica, Arial, sans-serif">
  <rect width="1200" height="675" fill="#1E2A38"/>

  <!-- title -->
  <text x="60" y="70" fill="#F5F7FA" font-size="38" font-weight="700">Six loop components, six AWS services</text>
  <text x="60" y="108" fill="#8FA3B8" font-size="24">A loop is six services talking, not one agent thinking harder</text>

  <!-- column headers -->
  <text x="80" y="146" fill="#8FA3B8" font-size="22" font-weight="700">OSMANI'S COMPONENT</text>
  <text x="700" y="146" fill="#FF9900" font-size="22" font-weight="700">AWS SERVICE</text>

  <!-- Row 1: Automations -> EventBridge + Lambda -->
  <rect x="60" y="160" width="480" height="62" fill="#2A3B4F"/>
  <text x="84" y="199" fill="#F5F7FA" font-size="28" font-weight="700">Automations</text>
  <line x1="560" y1="191" x2="612" y2="191" stroke="#FF9900" stroke-width="4"/>
  <path d="M 612 183 L 628 191 L 612 199 Z" fill="#FF9900"/>
  <rect x="648" y="160" width="492" height="62" fill="#2A3B4F"/>
  <text x="672" y="199" fill="#F5F7FA" font-size="28" font-weight="700">EventBridge + Lambda</text>

  <!-- Row 2: Worktrees -> CodeBuild / ECS -->
  <rect x="60" y="232" width="480" height="62" fill="#2A3B4F"/>
  <text x="84" y="271" fill="#F5F7FA" font-size="28" font-weight="700">Worktrees</text>
  <line x1="560" y1="263" x2="612" y2="263" stroke="#FF9900" stroke-width="4"/>
  <path d="M 612 255 L 628 263 L 612 271 Z" fill="#FF9900"/>
  <rect x="648" y="232" width="492" height="62" fill="#2A3B4F"/>
  <text x="672" y="271" fill="#F5F7FA" font-size="28" font-weight="700">CodeBuild / ECS tasks</text>

  <!-- Row 3: Skills -> Bedrock Knowledge Bases -->
  <rect x="60" y="304" width="480" height="62" fill="#2A3B4F"/>
  <text x="84" y="343" fill="#F5F7FA" font-size="28" font-weight="700">Skills</text>
  <line x1="560" y1="335" x2="612" y2="335" stroke="#FF9900" stroke-width="4"/>
  <path d="M 612 327 L 628 335 L 612 343 Z" fill="#FF9900"/>
  <rect x="648" y="304" width="492" height="62" fill="#2A3B4F"/>
  <text x="672" y="343" fill="#F5F7FA" font-size="28" font-weight="700">Bedrock Knowledge Bases</text>

  <!-- Row 4: Plugins (MCP) -> AWS MCP Server -->
  <rect x="60" y="376" width="480" height="62" fill="#2A3B4F"/>
  <text x="84" y="415" fill="#F5F7FA" font-size="28" font-weight="700">Plugins (MCP)</text>
  <line x1="560" y1="407" x2="612" y2="407" stroke="#FF9900" stroke-width="4"/>
  <path d="M 612 399 L 628 407 L 612 415 Z" fill="#FF9900"/>
  <rect x="648" y="376" width="492" height="62" fill="#2A3B4F" stroke="#FF9900" stroke-width="3"/>
  <text x="672" y="415" fill="#F5F7FA" font-size="28" font-weight="700">AWS MCP Server</text>
  <text x="1116" y="415" fill="#FF9900" font-size="22" font-weight="700" text-anchor="end">GA</text>

  <!-- Row 5: Sub-agents -> Bedrock Agents -->
  <rect x="60" y="448" width="480" height="62" fill="#2A3B4F"/>
  <text x="84" y="487" fill="#F5F7FA" font-size="28" font-weight="700">Sub-agents</text>
  <line x1="560" y1="479" x2="612" y2="479" stroke="#FF9900" stroke-width="4"/>
  <path d="M 612 471 L 628 479 L 612 487 Z" fill="#FF9900"/>
  <rect x="648" y="448" width="492" height="62" fill="#2A3B4F"/>
  <text x="672" y="487" fill="#F5F7FA" font-size="28" font-weight="700">Bedrock Agents</text>

  <!-- Row 6: Memory files -> S3 + DynamoDB -->
  <rect x="60" y="520" width="480" height="62" fill="#2A3B4F"/>
  <text x="84" y="559" fill="#F5F7FA" font-size="28" font-weight="700">Memory files</text>
  <line x1="560" y1="551" x2="612" y2="551" stroke="#FF9900" stroke-width="4"/>
  <path d="M 612 543 L 628 551 L 612 559 Z" fill="#FF9900"/>
  <rect x="648" y="520" width="492" height="62" fill="#2A3B4F"/>
  <text x="672" y="559" fill="#F5F7FA" font-size="28" font-weight="700">S3 + DynamoDB</text>

  <!-- source + footer -->
  <text x="60" y="622" fill="#8FA3B8" font-size="22">Source: Addy Osmani, "Loop engineering," LinkedIn (June 9, 2026)</text>
  <text x="60" y="663" fill="#8FA3B8" font-size="22">Build. Document. Share. Repeat.</text>
  <text x="1140" y="663" fill="#8FA3B8" font-size="22" text-anchor="end">Build-to-Learn</text>
</svg>
